<svg version="1.1" id="Layer_1" xmlns="http://www.w3.org/2000/svg" xmlns:xlink="http://www.w3.org/1999/xlink" x="0px" y="0px"
	 width="100%" viewBox="0 0 180 180" enable-background="new 0 0 180 180" xml:space="preserve">
<path fill="#000000" opacity="1.000000" stroke="none" 
	d="
M107.000000,181.000000 
	C72.500000,181.000000 38.499813,180.951553 4.500336,181.084427 
	C1.516417,181.096100 0.911462,180.482529 0.917240,177.499832 
	C1.028946,119.833389 1.028944,62.166622 0.917244,4.500177 
	C0.911467,1.517542 1.517412,0.911459 4.500143,0.917237 
	C62.166588,1.028944 119.833359,1.028939 177.499802,0.917247 
	C180.482407,0.911471 181.088547,1.517366 181.082779,4.500132 
	C180.971054,62.166576 180.971054,119.833344 181.082733,177.499786 
	C181.088516,180.482346 180.485229,181.105927 177.499466,181.086029 
	C154.167160,180.930618 130.833344,181.000000 107.000000,181.000000 
z"/>
<path fill="#08A7DB" opacity="1.000000" stroke="none" 
	d="
M142.424591,72.924225 
	C142.621780,73.399757 142.684158,73.555626 142.795181,73.958588 
	C143.051300,74.280548 143.258759,74.355423 143.276276,74.701187 
	C143.182129,75.161133 143.277924,75.350204 143.508469,75.827240 
	C144.831558,76.419746 144.383316,77.409569 144.509369,78.580658 
	C145.491364,85.290627 147.278748,91.578506 144.328766,98.207535 
	C143.291092,99.034988 142.466751,99.144775 141.201111,98.793518 
	C139.551941,97.679962 139.571976,96.289116 139.528412,94.546272 
	C139.685638,91.918884 140.688950,89.680984 139.602417,87.074333 
	C139.484879,85.638466 139.509705,84.531410 139.386551,83.106400 
	C139.205750,81.484413 138.799011,80.291916 137.698990,79.043259 
	C137.143448,78.478867 136.873215,78.115150 136.523651,77.384399 
	C136.187561,76.375336 136.119736,75.672318 136.070023,74.615479 
	C133.329834,64.120506 126.500626,57.629318 116.972977,53.076561 
	C103.239182,46.488525 89.474953,43.972252 74.621002,49.190918 
	C72.022079,49.461613 69.930786,50.813980 67.281586,49.719673 
	C66.364952,48.695942 66.388680,47.877781 66.950928,46.672966 
	C75.004097,41.090027 83.906570,40.695984 92.866089,40.719662 
	C94.158203,40.723080 95.493668,40.968895 97.223099,41.034649 
	C107.067291,42.700165 115.959473,45.870487 124.574020,50.879650 
	C124.854134,51.160282 124.915985,51.189953 124.896255,51.218010 
	C126.728508,52.694843 128.491364,54.257889 130.622986,55.848473 
	C130.807510,56.112190 130.890549,56.102249 130.895050,56.143814 
	C131.469727,56.574677 131.982315,57.028782 132.640869,57.825150 
	C132.846405,58.100357 132.911774,58.080116 132.907959,58.114113 
	C136.757446,62.496391 139.939560,67.280426 142.424591,72.924225 
z"/>
<path fill="#D30B82" opacity="1.000000" stroke="none" 
	d="
M85.077164,136.408066 
	C84.060654,136.565933 83.370750,136.610565 82.335846,136.679504 
	C78.289886,137.102295 76.065575,136.160782 77.851059,131.493835 
	C78.130394,131.153656 78.110016,131.101959 78.137650,131.104919 
	C78.276520,130.905563 78.387756,130.703278 78.811966,130.352829 
	C79.124939,130.204651 79.164413,130.143219 79.199188,130.132111 
	C79.278450,129.913696 79.322922,129.706390 79.272247,129.195633 
	C79.177116,128.892166 79.126472,128.896286 79.121307,128.871399 
	C78.299522,128.248642 77.393143,127.807945 76.359192,127.081238 
	C76.222099,126.811882 76.169434,126.791985 76.163803,126.764404 
	C75.936272,126.655739 75.714378,126.574654 75.288635,126.203705 
	C75.084793,125.913841 75.017273,125.860466 75.043030,125.825989 
	C74.337952,125.222031 73.498032,124.839417 72.449570,124.155090 
	C72.209358,123.907631 72.094772,123.920311 72.082054,123.864090 
	C68.906487,121.219467 66.103325,118.324097 64.224747,114.264648 
	C64.337044,113.419456 64.572922,113.000664 65.214005,112.438126 
	C67.693741,111.481133 68.917908,113.830299 71.215324,113.879395 
	C71.828133,113.941399 72.073143,113.987358 72.674545,114.158707 
	C73.488373,114.503708 73.908524,114.779991 74.553711,115.380356 
	C75.364670,116.464729 76.056862,117.179047 76.670517,118.382935 
	C79.951370,124.082878 84.253708,128.184021 90.273666,130.938583 
	C91.173248,131.632858 91.523407,132.274368 91.629578,133.414764 
	C91.367432,134.541504 90.796791,134.999527 89.850464,135.569427 
	C88.193542,136.191711 86.738869,135.803528 85.077164,136.408066 
z"/>
<path fill="#710E63" opacity="1.000000" stroke="none" 
	d="
M71.992844,116.036568 
	C69.284149,116.437836 68.235268,114.458138 66.472542,113.024261 
	C62.789150,111.574432 61.590168,108.310036 59.885094,105.590080 
	C59.053085,104.262848 58.531342,102.961983 56.351120,103.085693 
	C53.138264,99.084846 51.965694,94.489182 51.172703,89.381126 
	C52.269482,88.579041 53.065430,88.994774 54.003448,89.973557 
	C56.204636,91.304306 55.264050,95.467392 59.334297,94.761871 
	C61.455521,95.400826 62.081020,96.974586 62.906658,98.405243 
	C65.464958,102.838257 67.869537,107.372101 71.130287,111.359215 
	C72.207954,112.676949 73.156693,114.017082 71.992844,116.036568 
z"/>
<path fill="#484A99" opacity="1.000000" stroke="none" 
	d="
M53.129410,62.622250 
	C53.056320,58.364220 55.523861,56.009033 57.734764,53.179718 
	C58.506481,52.926605 58.985577,52.953068 59.788033,53.225250 
	C60.906361,54.010761 61.803226,54.473198 62.829372,55.405113 
	C63.173740,55.954773 63.278614,56.195351 63.498638,56.815880 
	C62.703960,61.917587 60.567528,66.027267 57.043579,69.763153 
	C56.421368,69.918434 56.165894,69.938148 55.539833,69.879204 
	C52.473648,68.220779 53.988716,65.448166 53.129410,62.622250 
z"/>
<path fill="#186FA2" opacity="1.000000" stroke="none" 
	d="
M91.014328,34.585701 
	C87.840546,34.404873 86.498627,32.713829 86.772194,30.090063 
	C87.010071,27.808609 88.819374,26.732470 90.991127,26.662527 
	C92.704590,26.607344 94.392960,27.158108 94.787971,29.119354 
	C95.348198,31.900862 94.627373,34.058922 91.014328,34.585701 
z"/>
<path fill="#2B4288" opacity="1.000000" stroke="none" 
	d="
M98.207069,41.707928 
	C87.837952,41.583378 77.714622,41.306961 68.153915,46.658768 
	C66.262886,47.835804 65.779991,50.611809 62.549156,49.448322 
	C68.279434,42.655525 76.415428,40.979973 84.808723,40.217323 
	C88.895248,39.846001 93.036545,40.077450 97.621078,40.112503 
	C98.366150,40.567345 98.482422,40.989960 98.207069,41.707928 
z"/>
<path fill="#1C7CBF" opacity="1.000000" stroke="none" 
	d="
M131.482529,51.232994 
	C129.319885,48.828690 129.692505,46.458107 131.469543,44.840443 
	C132.955704,43.487556 135.360367,43.620655 136.845078,45.191166 
	C138.211578,46.636631 139.978455,48.473122 137.216003,50.747364 
	C135.350250,52.157665 133.644363,52.155674 131.482529,51.232994 
z"/>
<path fill="#7D3392" opacity="1.000000" stroke="none" 
	d="
M53.136948,91.130127 
	C52.336201,90.535667 51.960686,89.953377 51.410408,89.178360 
	C51.168083,88.576141 51.100529,88.166626 50.991508,87.448318 
	C50.772694,86.878708 50.595169,86.618027 50.372543,86.125229 
	C50.301670,85.471199 50.275723,85.049408 50.266190,84.310852 
	C50.282608,83.994080 50.412560,83.512695 50.308052,83.286346 
	C50.155148,82.283501 50.106747,81.506996 50.127396,80.346649 
	C51.177372,77.955330 52.944180,77.286346 55.434998,77.227837 
	C59.040646,79.070061 57.977367,82.350578 58.703686,85.437912 
	C58.889126,86.433571 58.955544,87.009041 58.955597,88.029457 
	C58.814941,89.052376 58.594658,89.593819 57.978004,90.421158 
	C56.396175,91.783081 54.981567,91.487679 53.136948,91.130127 
z"/>
<path fill="#7D3392" opacity="1.000000" stroke="none" 
	d="
M118.357651,128.623260 
	C115.360321,129.801941 112.549271,130.816513 109.371017,131.884155 
	C108.823402,131.827621 108.642967,131.718002 108.263588,131.359985 
	C107.761879,130.077713 107.198166,129.195587 106.355492,128.059052 
	C106.200470,127.465874 106.177460,127.212517 106.223534,126.570694 
	C108.298141,122.634315 112.007393,122.058022 115.850784,120.953186 
	C117.177940,121.072479 117.940498,121.547958 119.135635,122.089531 
	C120.366486,123.288956 120.628227,124.385803 120.153214,126.035156 
	C119.864563,126.704460 119.731018,126.963921 119.330147,127.570007 
	C119.062820,127.916626 119.046478,128.061676 118.983673,128.098846 
	C118.920876,128.136032 118.543930,128.459167 118.357651,128.623260 
z"/>
<path fill="#970567" opacity="1.000000" stroke="none" 
	d="
M40.441566,111.478821 
	C37.387066,112.344055 35.917183,110.746964 35.387688,108.504288 
	C34.844364,106.203033 36.529720,104.956856 38.439617,103.955948 
	C40.280502,102.991219 41.313797,104.228836 42.098042,105.313545 
	C43.794655,107.660194 42.985905,109.690994 40.441566,111.478821 
z"/>
<path fill="#1E5791" opacity="1.000000" stroke="none" 
	d="
M98.357010,42.058655 
	C98.001717,41.565666 98.027229,41.172279 98.070923,40.483929 
	C106.704514,42.418491 115.417786,44.381577 123.081100,49.232712 
	C123.629257,49.579712 124.064095,50.105713 124.702881,50.854385 
	C118.652252,49.854847 113.818771,45.165760 107.450035,44.196079 
	C104.510681,43.748539 101.639763,42.851490 98.357010,42.058655 
z"/>
<path fill="#7941A0" opacity="1.000000" stroke="none" 
	d="
M55.263866,78.147018 
	C54.047283,80.011948 52.477104,80.016289 50.543297,79.968475 
	C47.955185,77.951012 49.999863,75.858360 50.134056,73.429588 
	C51.458698,71.759537 50.396202,69.459190 52.556183,68.277733 
	C53.433189,68.139137 53.916603,68.251534 54.668316,68.732948 
	C55.140354,68.956833 55.311733,68.950928 55.739845,68.929245 
	C56.365116,69.235924 56.732548,69.559654 57.312496,70.193115 
	C58.132759,71.681778 58.035725,72.949036 57.928600,74.589325 
	C57.464542,76.252640 56.584904,77.139938 55.263866,78.147018 
z"/>
<path fill="#BB1988" opacity="1.000000" stroke="none" 
	d="
M56.093277,103.248718 
	C57.019501,99.733749 58.431152,99.232712 60.336597,102.450912 
	C62.247223,105.677856 64.135086,108.918274 66.125237,112.484406 
	C65.908241,113.110504 65.598930,113.404991 65.082230,113.942673 
	C64.254204,114.447426 63.751629,114.231033 63.056969,113.639359 
	C62.319996,113.164314 61.850662,112.819473 61.248055,112.181984 
	C61.059464,111.959923 61.001614,111.994926 61.022766,111.968483 
	C60.259270,111.258125 60.135860,110.161057 59.277378,109.169800 
	C59.093826,108.931015 59.015411,108.980499 59.048149,108.947495 
	C58.537228,108.571808 58.517078,107.974457 58.209644,107.203163 
	C58.054920,106.964737 58.000359,106.999390 58.024509,106.977844 
	C57.278992,106.258522 57.126499,105.205971 56.437820,104.117371 
	C56.304916,103.849487 56.175053,103.444839 56.093277,103.248718 
z"/>
<path fill="#4869BC" opacity="1.000000" stroke="none" 
	d="
M139.157745,110.507492 
	C138.744263,111.100639 138.583145,111.416939 138.182068,111.859589 
	C137.708801,112.262436 137.486969,112.547852 137.235168,113.110214 
	C136.635925,114.166748 136.078110,114.955231 135.247284,115.851738 
	C134.312943,116.635002 133.363297,116.855194 132.334961,117.606651 
	C130.759766,118.100014 129.706436,117.573456 128.429871,116.669281 
	C128.061386,116.191254 127.944649,115.977753 127.732193,115.413284 
	C127.609795,114.821632 127.583107,114.580956 127.550629,113.976532 
	C127.586258,113.374138 127.627686,113.135490 127.943558,112.229813 
	C128.353043,111.365974 128.488083,111.169182 129.111847,110.458740 
	C129.781311,109.794060 129.962067,109.643028 130.756561,109.150391 
	C131.592697,108.739616 131.815079,108.670433 132.377106,108.545677 
	C134.131149,108.305489 135.147324,107.147812 136.907806,106.946632 
	C137.991455,107.191368 138.582626,107.621613 139.319046,108.447647 
	C139.617188,109.265869 139.591034,109.753571 139.157745,110.507492 
z"/>
<path fill="#970567" opacity="1.000000" stroke="none" 
	d="
M70.546646,140.810944 
	C69.354347,143.296280 67.479225,143.639618 65.897720,142.400467 
	C64.252190,141.111176 64.870735,139.009567 65.758759,137.387100 
	C66.562889,135.917908 68.048645,134.641861 69.706253,135.578186 
	C71.554375,136.622162 72.518433,138.421494 70.546646,140.810944 
z"/>
<path fill="#186FA2" opacity="1.000000" stroke="none" 
	d="
M143.838074,98.297989 
	C145.627014,91.986824 144.693924,85.951408 143.920135,79.487213 
	C144.049423,78.768204 144.191513,78.476791 144.523315,78.633148 
	C147.152649,85.405281 147.105545,91.816513 145.211029,98.618889 
	C144.871460,99.103989 144.704803,99.256447 144.220734,99.290344 
	C143.808624,98.966705 143.713898,98.761650 143.838074,98.297989 
z"/>
<path fill="#1C7CBF" opacity="1.000000" stroke="none" 
	d="
M143.667938,98.041473 
	C144.085739,98.233696 144.114517,98.428009 144.182251,98.914368 
	C144.842041,101.073883 143.469772,102.636932 143.167755,104.684494 
	C142.907990,104.965881 142.833649,105.360825 142.752930,105.544838 
	C141.938126,107.040924 140.247665,107.355713 139.267441,108.841537 
	C138.385590,108.659645 137.794907,108.350952 136.963593,107.807648 
	C135.490219,106.279358 136.399673,104.848915 136.517578,103.118622 
	C136.854980,101.301750 137.950150,100.273468 138.790298,98.702728 
	C139.361221,98.077629 139.786545,97.866989 140.606552,97.874863 
	C141.726044,98.009621 142.502472,98.026596 143.667938,98.041473 
z"/>
<path fill="#3E377D" opacity="1.000000" stroke="none" 
	d="
M48.976089,52.282013 
	C46.427517,53.094624 43.971512,53.773098 42.445866,51.438438 
	C41.446911,49.909763 41.514324,47.752796 42.726826,46.331161 
	C44.241325,44.555443 46.287621,43.295364 48.721626,44.968513 
	C51.762669,47.058945 51.247982,49.495445 48.976089,52.282013 
z"/>
<path fill="#186FA2" opacity="1.000000" stroke="none" 
	d="
M142.641754,72.870743 
	C139.371185,68.441414 136.182983,63.638950 132.949463,58.492302 
	C138.216888,61.535610 140.501282,66.995544 142.641754,72.870743 
z"/>
<path fill="#BB1988" opacity="1.000000" stroke="none" 
	d="
M91.283363,134.351379 
	C90.782913,133.540115 90.535988,132.986877 90.171249,132.154572 
	C91.651047,128.133713 95.427773,129.700775 98.525398,128.575012 
	C99.527367,128.603989 100.087837,128.709106 100.999710,129.122223 
	C101.767639,129.783600 102.036400,130.285248 102.186821,131.290039 
	C102.110115,132.299881 101.886284,132.821640 101.240685,133.605225 
	C100.950928,133.923691 100.953049,133.991653 100.928970,133.967651 
	C100.795151,134.110275 100.685410,134.276932 100.276352,134.442749 
	C99.977043,134.441910 99.565155,134.617828 99.341217,134.618317 
	C98.208778,134.069946 97.339165,134.371933 96.129837,134.825699 
	C94.359123,134.969025 92.918793,135.199966 91.283363,134.351379 
z"/>
<path fill="#970567" opacity="1.000000" stroke="none" 
	d="
M62.703590,113.382034 
	C63.434574,113.347755 63.918087,113.621300 64.638214,114.040352 
	C67.235641,117.173492 69.596451,120.161125 72.013290,123.478317 
	C67.489830,122.490105 65.808807,118.191734 62.926262,114.705383 
	C62.698845,114.157219 62.577488,113.923546 62.703590,113.382034 
z"/>
<path fill="#7941A0" opacity="1.000000" stroke="none" 
	d="
M119.232224,127.134399 
	C118.996048,125.830505 118.986374,124.829224 118.982887,123.452461 
	C119.127480,120.976044 120.706268,120.457657 122.767776,120.053482 
	C124.012932,120.372772 124.589081,120.928207 125.022888,122.124451 
	C125.082779,123.707352 124.427933,124.527794 123.236603,125.462830 
	C122.754684,125.753120 122.596306,125.807167 122.196075,125.928474 
	C121.814201,126.155205 121.674171,126.314667 121.250725,126.619080 
	C120.967316,126.764046 120.930237,126.898247 120.864975,126.922478 
	C120.442726,127.356316 119.995720,127.519707 119.232224,127.134399 
z"/>
<path fill="#572F7D" opacity="1.000000" stroke="none" 
	d="
M52.916916,68.706863 
	C51.702240,70.111099 52.044094,71.825203 50.449913,72.908264 
	C49.930241,69.315826 50.907249,65.835167 52.675259,62.209305 
	C52.933224,61.951881 53.137619,62.049416 53.234406,62.108192 
	C54.656082,64.272675 54.169567,66.380074 52.916916,68.706863 
z"/>
<path fill="#710E63" opacity="1.000000" stroke="none" 
	d="
M77.816200,131.229248 
	C77.383385,134.074127 78.571686,135.717834 81.734467,136.465942 
	C79.624611,139.306198 77.942635,137.033859 76.488686,135.670685 
	C74.666206,133.961990 76.124916,132.532761 77.816200,131.229248 
z"/>
<path fill="#970567" opacity="1.000000" stroke="none" 
	d="
M90.751846,134.179382 
	C92.729027,134.067413 94.428223,134.041473 96.552780,134.012085 
	C97.108505,134.168991 97.238876,134.329376 97.171463,134.728516 
	C94.889404,136.652924 92.009270,135.373230 89.497314,136.829651 
	C88.711792,136.534332 88.541000,136.163666 88.795074,135.441589 
	C89.502197,134.882904 89.988029,134.574158 90.751846,134.179382 
z"/>
<path fill="#186FA2" opacity="1.000000" stroke="none" 
	d="
M130.755386,55.780685 
	C128.141647,55.717102 126.509941,53.907806 124.954124,51.567337 
	C127.315208,51.958889 129.365906,53.209583 130.755386,55.780685 
z"/>
<path fill="#871979" opacity="1.000000" stroke="none" 
	d="
M101.346977,133.947540 
	C101.003975,133.541519 101.057022,133.159332 101.154778,132.491028 
	C103.234879,130.134201 105.493217,128.894989 108.744164,130.605026 
	C109.038269,130.949341 109.027061,131.443573 109.015442,131.690399 
	C106.750183,133.210037 104.266243,133.660828 101.346977,133.947540 
z"/>
<path fill="#2B4288" opacity="1.000000" stroke="none" 
	d="
M59.057320,54.124641 
	C58.534019,53.718773 58.367111,53.526707 58.117302,53.158623 
	C58.367104,51.058800 59.444736,49.749760 61.648460,49.048290 
	C61.977867,48.978043 62.229794,49.239155 62.355732,49.369736 
	C63.136059,52.183731 61.768379,53.582840 59.057320,54.124641 
z"/>
<path fill="#572F7D" opacity="1.000000" stroke="none" 
	d="
M131.873627,118.695663 
	C131.031479,120.719040 129.539017,121.998543 127.109512,122.684921 
	C125.947670,119.619347 127.332924,118.240898 130.419830,117.928391 
	C131.087387,118.137810 131.341995,118.257530 131.873627,118.695663 
z"/>
<path fill="#37539D" opacity="1.000000" stroke="none" 
	d="
M138.946655,109.270660 
	C139.410355,107.367470 140.266388,106.174255 142.338501,105.781143 
	C141.626801,107.357552 140.581390,108.986259 139.220673,110.699646 
	C138.909256,110.380554 138.913132,109.976768 138.946655,109.270660 
z"/>
<path fill="#2B4288" opacity="1.000000" stroke="none" 
	d="
M131.233002,51.317780 
	C132.762070,50.981354 134.421173,50.966213 136.498199,50.928185 
	C135.359680,53.379284 133.566925,54.064880 131.233002,51.317780 
z"/>
<path fill="#572F7D" opacity="1.000000" stroke="none" 
	d="
M123.235229,125.737091 
	C123.210670,125.038345 123.508286,124.377617 123.954910,123.485992 
	C124.477600,122.469742 125.147415,122.270424 126.289902,122.469727 
	C126.634483,122.614861 126.856209,122.850304 126.966980,122.968109 
	C126.169495,124.329475 125.087570,125.345688 123.235229,125.737091 
z"/>
<path fill="#710E63" opacity="1.000000" stroke="none" 
	d="
M88.668777,135.172241 
	C89.035988,135.545792 89.055595,135.899902 89.097427,136.520447 
	C87.947449,136.769821 86.775246,136.752792 85.176804,136.628525 
	C85.510056,134.941299 86.992897,135.248688 88.668777,135.172241 
z"/>
<path fill="#2B4288" opacity="1.000000" stroke="none" 
	d="
M143.196503,104.744568 
	C142.550156,103.126762 143.490494,101.560295 144.096848,99.551994 
	C144.221237,99.206429 144.625519,99.067192 144.831818,99.009369 
	C145.039124,100.953362 144.797562,102.887573 143.196503,104.744568 
z"/>
<path fill="#484A99" opacity="1.000000" stroke="none" 
	d="
M132.408173,118.858704 
	C131.957047,119.003380 131.763443,118.992691 131.279602,118.963287 
	C130.586868,118.270058 130.862610,117.735641 131.623840,117.085892 
	C132.708176,116.603790 133.509491,116.278839 134.642548,115.956818 
	C134.204758,116.874283 133.435242,117.788811 132.408173,118.858704 
z"/>
<path fill="#710E63" opacity="1.000000" stroke="none" 
	d="
M76.254913,127.154526 
	C77.343216,126.874023 78.393799,127.074333 79.040939,128.529449 
	C77.800346,129.178589 76.904251,128.630890 76.254913,127.154526 
z"/>
<path fill="#970567" opacity="1.000000" stroke="none" 
	d="
M72.285156,124.216194 
	C73.351166,123.814995 74.264236,124.196526 74.974091,125.493576 
	C73.862793,126.017761 73.045189,125.413818 72.285156,124.216194 
z"/>
<path fill="#710E63" opacity="1.000000" stroke="none" 
	d="
M56.214424,104.179672 
	C57.496330,104.232346 58.003906,105.114479 58.071678,106.628601 
	C56.939495,106.508690 56.009430,105.920174 56.214424,104.179672 
z"/>
<path fill="#710E63" opacity="1.000000" stroke="none" 
	d="
M59.092072,109.255547 
	C60.306339,109.249649 60.820110,110.140549 61.033333,111.614151 
	C59.921921,111.544121 59.316090,110.719276 59.092072,109.255547 
z"/>
<path fill="#710E63" opacity="1.000000" stroke="none" 
	d="
M62.760601,112.865067 
	C62.932819,113.293800 62.914577,113.513405 62.858261,114.061951 
	C62.256329,113.791519 61.692459,113.192139 61.094032,112.276337 
	C61.563023,112.191925 62.066582,112.423935 62.760601,112.865067 
z"/>
<path fill="#186FA2" opacity="1.000000" stroke="none" 
	d="
M132.800446,57.788841 
	C131.956940,58.041950 131.396301,57.526478 130.952286,56.480507 
	C131.822266,56.178989 132.547409,56.456253 132.800446,57.788841 
z"/>
<path fill="#871979" opacity="1.000000" stroke="none" 
	d="
M97.339348,134.963501 
	C96.973686,134.967270 96.977974,134.487885 96.978058,134.248260 
	C97.686974,133.497452 98.368988,133.306595 99.039810,134.396759 
	C98.646515,134.732437 98.175766,134.846085 97.339348,134.963501 
z"/>
<path fill="#2B4288" opacity="1.000000" stroke="none" 
	d="
M144.745331,78.737076 
	C144.713028,79.080925 144.310333,79.073067 144.108841,79.066338 
	C143.778992,78.326439 143.650635,77.593262 143.582733,76.487656 
	C144.805954,76.483833 144.655884,77.506210 144.745331,78.737076 
z"/>
<path fill="#572F7D" opacity="1.000000" stroke="none" 
	d="
M119.004120,127.103836 
	C119.406128,126.839554 119.806534,126.847305 120.503326,126.900894 
	C120.404785,127.256134 120.009857,127.565552 119.338875,127.895798 
	C119.042725,127.736382 119.022621,127.556129 119.004120,127.103836 
z"/>
<path fill="#710E63" opacity="1.000000" stroke="none" 
	d="
M58.058666,107.269051 
	C58.392406,107.419975 58.729893,107.875214 59.074135,108.622467 
	C58.741398,108.467438 58.401905,108.020401 58.058666,107.269051 
z"/>
<path fill="#37539D" opacity="1.000000" stroke="none" 
	d="
M137.420227,113.215591 
	C137.314407,113.041191 137.435074,112.704124 137.748932,112.176498 
	C137.843643,112.341606 137.745193,112.697258 137.420227,113.215591 
z"/>
<path fill="#871979" opacity="1.000000" stroke="none" 
	d="
M100.177567,134.488831 
	C100.094910,134.205536 100.280563,134.050125 100.719444,133.959656 
	C100.841690,134.241013 100.666092,134.438385 100.177567,134.488831 
z"/>
<path fill="#572F7D" opacity="1.000000" stroke="none" 
	d="
M118.369492,128.793488 
	C118.295311,128.597031 118.446182,128.431213 118.772430,128.212967 
	C118.952042,128.436691 118.834290,128.657883 118.369492,128.793488 
z"/>
<path fill="#572F7D" opacity="1.000000" stroke="none" 
	d="
M121.189423,126.727402 
	C121.082184,126.484032 121.274109,126.274635 121.748657,126.065796 
	C121.873711,126.305847 121.692802,126.537521 121.189423,126.727402 
z"/>
<path fill="#186FA2" opacity="1.000000" stroke="none" 
	d="
M143.186890,74.826729 
	C142.835968,74.916603 142.712860,74.760574 142.780426,74.354820 
	C143.130051,74.235313 143.277924,74.393883 143.186890,74.826729 
z"/>
<path fill="#710E63" opacity="1.000000" stroke="none" 
	d="
M75.173874,126.149445 
	C75.440727,125.889992 75.736618,126.011887 76.065315,126.508179 
	C75.859764,126.619568 75.561363,126.502312 75.173874,126.149445 
z"/>
<path fill="#710E63" opacity="1.000000" stroke="none" 
	d="
M79.172043,129.200272 
	C79.713966,129.055939 79.994873,129.339142 79.443634,130.016876 
	C79.211647,129.916809 79.189316,129.712601 79.172043,129.200272 
z"/>
<path fill="#710E63" opacity="1.000000" stroke="none" 
	d="
M78.867371,130.222748 
	C79.085533,130.545715 78.917900,130.803360 78.393646,131.042725 
	C78.313454,130.818848 78.461632,130.529831 78.867371,130.222748 
z"/>
<path fill="#710E63" opacity="1.000000" stroke="none" 
	d="
M50.296654,86.148224 
	C50.572342,86.106644 50.748901,86.366608 50.903671,86.906189 
	C50.721928,86.894165 50.493809,86.648811 50.296654,86.148224 
z"/>
<path fill="#710E63" opacity="1.000000" stroke="none" 
	d="
M50.170036,83.298035 
	C50.416656,83.251442 50.490952,83.488266 50.354523,83.882286 
	C50.282608,83.994080 50.136524,83.536057 50.170036,83.298035 
z"/>
<path fill="#1E5791" opacity="1.000000" stroke="none" 
	d="
M73.711838,47.942024 
	C89.023186,42.411503 103.445198,44.667042 117.706177,51.820717 
	C118.077026,52.301422 118.170792,52.577148 118.043900,53.230286 
	C116.220650,55.066315 114.503723,54.692589 112.723671,53.981842 
	C101.531578,49.513027 90.009918,48.164291 78.114113,50.348549 
	C76.804886,50.588940 75.470718,50.701019 73.999489,49.506874 
	C73.642677,48.898438 73.577858,48.614632 73.711838,47.942024 
z"/>
<path fill="#186FA2" opacity="1.000000" stroke="none" 
	d="
M117.855759,53.278881 
	C118.040428,52.957443 118.014191,52.491398 117.998718,52.258545 
	C127.606094,56.320442 134.043396,63.623653 138.054840,73.613716 
	C137.893051,74.140022 137.700912,74.299141 137.159393,74.595337 
	C133.048096,74.679764 132.099030,71.264366 130.674377,68.968391 
	C128.000946,64.659981 124.648857,61.216324 120.606827,58.286266 
	C119.044952,57.154076 117.183517,56.075783 117.855759,53.278881 
z"/>
<path fill="#317AC8" opacity="1.000000" stroke="none" 
	d="
M58.847565,54.207695 
	C59.842529,52.604786 60.973083,51.308338 62.292656,49.756107 
	C64.067619,48.673729 65.653557,47.847134 67.574341,46.967300 
	C67.729797,47.658066 67.550407,48.402073 67.299515,49.522335 
	C67.550522,50.251148 67.755508,50.664104 67.846649,51.479126 
	C67.750427,52.047012 67.667816,52.264366 67.364365,52.749096 
	C65.515701,53.783855 64.000404,54.756386 62.084530,55.645226 
	C60.585293,55.867409 59.547169,55.752338 58.847565,54.207695 
z"/>
<path fill="#3E377D" opacity="1.000000" stroke="none" 
	d="
M141.012817,97.589371 
	C140.674942,98.149269 140.470413,98.370689 140.232117,98.860970 
	C139.846298,99.169739 139.564346,99.274437 138.861725,99.212906 
	C137.797485,98.516190 137.103729,97.843796 137.185318,97.047707 
	C137.677475,92.246101 136.894806,87.391380 138.125427,82.278381 
	C138.955521,81.598129 139.528915,81.474182 140.517700,81.833374 
	C141.064682,83.477585 141.243988,84.859718 141.498474,86.653366 
	C141.206879,88.831078 142.076797,90.534760 141.747406,92.724136 
	C141.463181,94.497887 141.269608,95.842003 141.012817,97.589371 
z"/>
<path fill="#2B4288" opacity="1.000000" stroke="none" 
	d="
M67.168961,52.196541 
	C66.972481,51.346672 67.051865,50.859447 67.179626,50.135406 
	C69.154144,49.048203 70.914513,47.764050 73.515694,47.599922 
	C73.931999,47.803539 73.953362,48.053852 74.011772,48.679169 
	C73.381027,53.111954 70.874428,53.705132 67.168961,52.196541 
z"/>
<path fill="#1C7CBF" opacity="1.000000" stroke="none" 
	d="
M141.870804,92.965210 
	C141.582352,91.408806 141.507950,89.663841 141.503601,87.491867 
	C142.066467,88.939941 143.312637,90.747581 141.870804,92.965210 
z"/>
<path fill="#1C7CBF" opacity="1.000000" stroke="none" 
	d="
M140.919098,81.757660 
	C140.562119,82.064796 140.240067,82.024467 139.676086,81.991272 
	C138.826416,81.812576 138.414154,81.415428 138.124802,80.372963 
	C138.100845,79.317642 138.307739,78.765778 139.093536,78.112480 
	C140.863480,78.746071 140.969666,80.057434 140.919098,81.757660 
z"/>
<path fill="#3E377D" opacity="1.000000" stroke="none" 
	d="
M139.420502,77.636101 
	C139.407455,78.389870 139.301987,78.828484 139.066681,79.579666 
	C137.008438,79.902687 137.108963,78.484703 137.190582,76.718338 
	C137.565109,75.994484 137.783508,75.742302 138.379669,75.818268 
	C138.947678,76.537933 139.137878,76.929436 139.420502,77.636101 
z"/>
<path fill="#3E377D" opacity="1.000000" stroke="none" 
	d="
M136.573807,74.115089 
	C137.030060,73.777359 137.240265,73.821205 137.767822,73.922974 
	C138.280823,74.518372 138.476456,75.055840 138.714783,75.869873 
	C138.637863,76.290688 138.518265,76.434944 138.207764,76.785530 
	C136.167297,77.031044 136.269836,75.748749 136.573807,74.115089 
z"/>
<path fill="#010002" opacity="1.000000" stroke="none" 
	d="
M136.650482,73.484673 
	C137.060547,74.652084 137.301224,75.570663 137.779373,76.740547 
	C138.154404,77.831596 138.291962,78.671341 138.683182,79.701660 
	C139.001541,80.374908 139.066223,80.857574 139.281921,81.674156 
	C140.254395,87.494041 140.623199,92.971977 139.090073,98.855789 
	C139.206879,100.727676 137.840805,101.484100 137.495239,103.037910 
	C136.714279,105.580177 135.503555,107.512932 133.762878,109.518021 
	C133.295670,110.139450 132.965988,110.422485 132.385864,110.895203 
	C132.199463,111.161400 132.134094,111.160721 132.142426,111.192337 
	C131.794708,111.227669 131.526474,111.383003 131.325409,111.930634 
	C131.304779,112.171333 131.205811,112.192345 131.179260,112.235382 
	C130.792923,112.236916 130.524231,112.373978 130.329193,112.927353 
	C130.311737,113.165100 130.221283,113.228981 130.212677,113.283676 
	C129.848343,113.293335 129.562057,113.413620 129.364380,113.950844 
	C129.383514,114.202446 129.289230,114.242012 129.275421,114.291245 
	C128.852432,114.368210 128.608017,114.592476 128.422668,115.252754 
	C128.286652,115.910378 128.246292,116.296387 128.121506,116.970612 
	C127.912209,117.429840 127.801872,117.602417 127.469894,117.991638 
	C127.071182,118.316002 126.894119,118.423721 126.426613,118.639328 
	C125.551819,118.957230 124.981300,119.199081 124.148727,119.627762 
	C123.667152,119.840256 123.468048,119.912888 122.965454,120.087067 
	C120.703522,121.097740 118.858734,122.293861 116.427658,122.808853 
	C113.365318,124.357101 110.524757,125.665970 107.361763,127.131912 
	C104.967621,129.219376 102.435318,129.626221 99.346222,129.498154 
	C92.945961,129.926697 86.445633,133.369385 82.107231,125.439842 
	C80.834579,123.113762 77.315865,122.023323 74.990891,119.552383 
	C74.137917,118.804367 73.641716,118.225998 72.928558,117.460457 
	C72.709511,116.912468 72.585526,116.603439 72.059937,116.366440 
	C71.798805,116.378792 71.748016,116.288559 71.704651,116.261635 
	C66.881317,110.072807 62.283226,103.798988 59.185635,96.216766 
	C56.730484,94.913528 55.386677,93.410324 56.464844,90.405212 
	C56.634705,89.568146 56.650379,89.109100 56.576309,88.315308 
	C56.471169,87.786552 56.455765,87.592552 56.234787,87.191299 
	C55.874561,84.317863 55.719917,81.651680 55.313751,78.727142 
	C55.165203,76.984024 55.268166,75.499252 55.231697,73.595093 
	C55.569756,72.790344 55.478878,72.236244 55.565109,71.460190 
	C55.704475,70.693268 55.802475,70.188614 55.948524,69.298706 
	C57.785763,65.052910 59.023746,60.913586 61.923843,57.212467 
	C63.060658,54.961117 64.293564,53.279312 66.610214,52.142212 
	C66.849045,51.882629 66.910500,51.893696 66.901802,51.863800 
	C69.135719,51.096840 71.378334,50.359779 73.834885,49.338448 
	C88.997162,44.256313 103.270401,47.094433 117.661880,52.917030 
	C120.523239,54.801472 123.072105,56.563808 125.475014,58.506653 
	C130.381210,62.473488 133.505814,67.806953 136.650482,73.484673 
z"/>
<path fill="#710E63" opacity="1.000000" stroke="none" 
	d="
M74.699448,119.722656 
	C79.130852,120.853027 82.964172,123.630234 85.709602,127.206093 
	C87.735100,129.844238 89.281754,130.475357 92.263702,129.526932 
	C94.094429,128.944641 96.190262,129.195877 98.602844,129.149582 
	C99.279739,129.374115 99.520844,129.521912 99.379028,129.852234 
	C96.246300,130.555359 93.496506,131.075989 90.400078,131.736053 
	C87.004204,132.063202 84.640419,132.113510 83.196220,128.144455 
	C81.885735,124.542831 76.498253,123.976547 74.699448,119.722656 
z"/>
<path fill="#710E63" opacity="1.000000" stroke="none" 
	d="
M71.848907,116.610825 
	C72.086838,116.506729 72.374870,116.634674 72.687241,117.017944 
	C72.361244,117.279823 72.090393,117.136353 71.848907,116.610825 
z"/>
<path fill="#A12C97" opacity="1.000000" stroke="none" 
	d="
M56.275215,90.042145 
	C57.328617,91.787910 58.038208,93.548630 58.823784,95.658493 
	C58.058350,96.885147 58.204384,98.827217 56.514915,98.704407 
	C54.743652,98.575668 54.452312,96.902817 54.045773,95.520508 
	C53.682697,94.285973 53.383453,93.032669 52.883881,91.452805 
	C53.643391,90.334724 54.720482,89.992828 56.275215,90.042145 
z"/>
<path fill="#6057B0" opacity="1.000000" stroke="none" 
	d="
M52.910004,68.941360 
	C52.718231,66.948349 52.939774,64.970787 53.246254,62.580093 
	C57.431980,63.202126 54.579559,66.176750 54.995964,68.597397 
	C54.420425,68.960754 53.871872,68.958778 52.910004,68.941360 
z"/>
<path fill="#2B4288" opacity="1.000000" stroke="none" 
	d="
M66.509674,51.906940 
	C66.125565,54.061543 64.205391,55.183712 62.374130,56.764046 
	C62.035133,56.694439 61.976845,56.493069 61.834362,55.986969 
	C62.754955,53.879730 64.091011,52.467579 66.509674,51.906940 
z"/>
<path fill="#710E63" opacity="1.000000" stroke="none" 
	d="
M56.047974,87.173416 
	C56.275337,87.118698 56.441284,87.319557 56.506805,87.783585 
	C56.274033,87.823975 56.134090,87.618057 56.047974,87.173416 
z"/>
<path fill="#A12C97" opacity="1.000000" stroke="none" 
	d="
M109.285690,130.770844 
	C106.680748,131.333298 104.323235,131.717255 101.582596,132.153046 
	C101.148445,131.723801 101.097397,131.242691 101.024834,130.401154 
	C102.498184,128.546387 104.656158,128.924332 106.764008,128.116241 
	C108.696625,127.944740 110.264076,127.786743 112.000351,127.611740 
	C112.405380,129.844955 110.428215,129.768234 109.285690,130.770844 
z"/>
<path fill="#871979" opacity="1.000000" stroke="none" 
	d="
M107.106682,127.899292 
	C105.681480,129.706635 103.768951,129.981934 101.381592,130.010971 
	C100.557259,130.048355 100.111198,130.056015 99.330627,130.049225 
	C98.996101,130.034744 99.022583,129.630798 99.030609,129.428558 
	C101.453323,128.568359 103.867996,127.910408 106.661003,127.270721 
	C107.039330,127.288986 107.084190,127.695862 107.106682,127.899292 
z"/>
<path fill="#572F7D" opacity="1.000000" stroke="none" 
	d="
M116.552368,123.079880 
	C118.299347,121.814377 120.392807,120.580505 122.826149,119.299316 
	C123.405937,119.636955 123.484489,120.055077 123.178040,120.722839 
	C121.804909,121.548225 120.676750,122.152756 119.268829,122.917137 
	C118.292336,123.088501 117.595589,123.100014 116.552368,123.079880 
z"/>
<path fill="#484A99" opacity="1.000000" stroke="none" 
	d="
M55.485855,71.336601 
	C55.542130,71.718842 55.477783,72.239761 55.252853,72.968185 
	C55.183258,72.608887 55.274250,72.042076 55.485855,71.336601 
z"/>
<path fill="#6057B0" opacity="1.000000" stroke="none" 
	d="
M123.133652,121.199921 
	C123.015518,120.571068 123.097961,120.198448 123.173218,119.538918 
	C123.166023,119.252007 123.147797,119.174232 123.187424,119.169228 
	C123.707382,118.163567 124.887245,118.156258 125.856995,117.332809 
	C126.110435,117.174942 126.120430,117.093742 126.161110,117.098015 
	C126.297234,116.905220 126.392677,116.708160 126.798615,116.404083 
	C127.332970,116.008804 127.556839,115.720535 128.027039,115.307785 
	C128.486099,115.039948 128.698837,114.896606 128.966263,115.134125 
	C129.821701,115.914787 130.622421,116.314583 131.665009,116.821564 
	C131.678375,117.433876 131.449905,117.939011 131.105392,118.694359 
	C129.151352,119.342224 127.877632,120.469269 126.798531,122.337372 
	C126.002357,122.776009 125.370239,122.937157 124.421021,123.176712 
	C123.847366,122.655464 123.590805,122.055809 123.133652,121.199921 
z"/>
<path fill="#2B4288" opacity="1.000000" stroke="none" 
	d="
M132.736908,110.293304 
	C133.548355,107.318420 135.750275,105.648056 137.587601,103.189331 
	C137.728745,104.288956 137.356491,105.623093 136.853607,107.265137 
	C135.655289,108.656349 134.587616,109.739655 133.248199,110.998749 
	C132.831390,110.982101 132.686310,110.789673 132.736908,110.293304 
z"/>
<path fill="#572F7D" opacity="1.000000" stroke="none" 
	d="
M130.511429,113.082497 
	C130.230316,112.800308 130.350861,112.523468 130.913040,112.306503 
	C131.106949,112.581001 130.959763,112.821487 130.511429,113.082497 
z"/>
<path fill="#572F7D" opacity="1.000000" stroke="none" 
	d="
M129.581848,114.126266 
	C129.325119,113.855804 129.447067,113.592766 129.976730,113.375839 
	C130.172348,113.640831 130.031052,113.878067 129.581848,114.126266 
z"/>
<path fill="#572F7D" opacity="1.000000" stroke="none" 
	d="
M129.117783,115.228874 
	C129.020966,115.514992 128.628922,115.390320 128.451141,115.286804 
	C128.283218,114.820717 128.451035,114.559608 129.019196,114.370224 
	C129.245926,114.541229 129.230270,114.741989 129.117783,115.228874 
z"/>
<path fill="#572F7D" opacity="1.000000" stroke="none" 
	d="
M132.726562,110.124237 
	C132.940292,110.186356 132.947983,110.383362 132.966080,110.877449 
	C132.976471,111.174538 132.587265,111.217880 132.393372,111.189636 
	C132.153091,110.806007 132.260117,110.505241 132.726562,110.124237 
z"/>
<path fill="#572F7D" opacity="1.000000" stroke="none" 
	d="
M131.515839,112.087006 
	C131.278030,111.823639 131.409409,111.552597 131.924835,111.291077 
	C132.128250,111.548172 131.986969,111.807747 131.515839,112.087006 
z"/>
<path fill="#1E5791" opacity="1.000000" stroke="none" 
	d="
M138.289352,102.697266 
	C138.100998,102.954819 137.811325,102.912399 137.668121,102.884033 
	C137.898193,101.793579 138.271454,100.731491 138.841553,99.481949 
	C139.219116,99.252907 139.399841,99.211311 139.854401,99.117386 
	C140.067383,100.429260 139.421967,101.507568 138.289352,102.697266 
z"/>
<path fill="#4869BC" opacity="1.000000" stroke="none" 
	d="
M48.936691,48.851837 
	C48.411423,51.091431 47.344906,52.145863 45.326168,51.377415 
	C44.380642,51.017494 43.695000,50.176334 43.639828,49.124538 
	C43.558952,47.582710 44.554508,46.653809 45.901886,46.291901 
	C47.679241,45.814503 48.735584,46.639385 48.936691,48.851837 
z"/>
<path fill="#7D3392" opacity="1.000000" stroke="none" 
	d="
M96.246841,111.572418 
	C90.340515,113.943703 86.187431,110.672447 82.360558,107.526489 
	C79.637672,105.288086 77.006187,102.701477 75.137672,99.152634 
	C74.234314,98.192574 74.114998,97.105095 73.181747,96.225174 
	C72.962570,96.030174 72.998215,95.998779 72.983307,96.016266 
	C72.324226,95.138329 72.419052,94.027138 72.144356,92.649567 
	C72.490250,91.493843 73.048805,90.993996 74.158913,90.610291 
	C74.767654,90.531326 75.011688,90.525726 75.615829,90.523209 
	C76.212616,90.535889 76.449287,90.545486 77.034790,90.589989 
	C77.611061,90.667542 77.838509,90.710190 78.383514,90.877441 
	C78.894318,91.112907 79.087540,91.223778 79.541534,91.528381 
	C79.958473,91.862610 80.114662,92.003098 80.477661,92.366333 
	C80.794662,92.749146 80.904846,92.909210 81.178848,93.296921 
	C81.448860,93.670128 81.555061,93.815697 81.994583,94.358940 
	C82.429916,94.889778 82.531944,95.022957 82.771332,95.362099 
	C82.908676,95.568062 83.156448,95.988144 83.296188,96.189529 
	C83.435936,96.390907 83.744629,96.781578 83.913193,96.974686 
	C84.202324,97.296654 84.322884,97.425507 84.634621,97.751083 
	C84.959099,98.081764 85.092392,98.215714 85.431061,98.554489 
	C86.201004,99.321388 86.767815,99.880943 87.668884,100.514153 
	C88.089149,100.787437 88.256950,100.895477 88.675232,101.161583 
	C89.083733,101.433777 89.241768,101.547913 89.626663,101.839943 
	C90.005142,102.132172 90.156769,102.246498 90.542130,102.519730 
	C90.933449,102.780701 91.091042,102.882751 91.492439,103.124672 
	C91.888802,103.371201 92.041344,103.477867 92.411835,103.758850 
	C92.780807,104.043861 92.931824,104.154579 93.286346,104.454948 
	C94.012115,105.232857 94.718727,105.501518 95.698082,105.928894 
	C96.665932,106.641121 97.257500,107.298096 98.042221,108.239243 
	C98.249954,108.768463 98.278137,108.999542 98.109657,109.519165 
	C97.693039,110.096176 97.473091,110.384644 97.025208,110.825905 
	C96.704468,111.146049 96.611664,111.313408 96.246841,111.572418 
z"/>
<path fill="#5F4196" opacity="1.000000" stroke="none" 
	d="
M76.274780,91.692612 
	C75.227119,91.973701 74.436081,91.982521 73.249886,92.009445 
	C71.919785,92.590569 71.246048,92.117218 70.421112,91.209671 
	C70.224518,90.955612 70.085800,90.498192 70.063751,90.260216 
	C69.572479,89.625565 69.512154,89.063911 69.355171,88.240135 
	C67.735649,86.144386 67.338692,83.916054 66.980850,81.259537 
	C66.829681,80.624741 66.753944,80.377853 66.838028,79.776672 
	C68.518753,78.099091 68.598602,76.297897 68.526131,74.504517 
	C68.457352,72.802521 68.539795,71.241600 70.709648,70.281250 
	C71.383301,70.228432 71.655930,70.259605 72.300789,70.468277 
	C75.344269,74.296127 74.391373,79.029137 76.443741,83.265968 
	C77.044464,85.043251 77.368423,86.491806 77.634750,88.339203 
	C77.657593,88.965454 77.637634,89.216934 77.497635,89.826111 
	C77.149200,90.632729 76.867241,91.044975 76.274780,91.692612 
z"/>
<path fill="#37539D" opacity="1.000000" stroke="none" 
	d="
M72.385750,71.162544 
	C71.859123,71.000641 71.662720,71.006073 71.171829,71.023285 
	C69.739059,70.430092 69.071564,69.409477 68.337341,68.049515 
	C68.121857,67.586426 68.050095,67.394730 68.005447,66.897186 
	C68.576508,64.706810 69.900902,63.455074 71.753662,62.232620 
	C72.664604,61.209843 73.617996,61.618130 74.685318,61.271980 
	C79.051521,60.490910 82.684090,61.402767 85.731155,64.943451 
	C84.620850,66.646126 83.417465,66.371262 82.136444,65.799606 
	C80.885071,65.241173 80.385483,66.097816 79.860855,67.401474 
	C77.574020,69.310562 75.533920,71.070099 72.385750,71.162544 
z"/>
<path fill="#6E2E85" opacity="1.000000" stroke="none" 
	d="
M104.175728,110.863754 
	C107.515442,112.178696 106.288368,114.440834 105.017281,115.578049 
	C103.511551,116.925194 101.209099,117.362114 99.290337,118.274269 
	C98.026993,118.874847 97.541306,117.885170 96.864090,117.255554 
	C95.871841,116.333046 96.315132,115.337242 97.048203,114.677788 
	C99.032257,112.892982 100.690552,110.459908 104.175728,110.863754 
z"/>
<path fill="#2B4288" opacity="1.000000" stroke="none" 
	d="
M117.458504,95.296143 
	C119.164070,90.938026 121.372505,86.930298 122.488136,82.423485 
	C122.849258,80.964638 124.073837,79.611794 125.754311,79.953735 
	C127.405807,80.289780 127.965736,81.850189 127.884766,83.477890 
	C127.781227,85.559074 128.638718,87.856972 126.039703,89.700974 
	C123.159363,88.140083 123.846367,90.536179 123.270798,91.707314 
	C121.828224,93.947533 120.882309,96.418709 117.458504,95.296143 
z"/>
<path fill="#5F4196" opacity="1.000000" stroke="none" 
	d="
M106.896805,99.277924 
	C106.865997,101.689041 105.428307,102.498329 104.205437,103.818390 
	C103.789467,104.164719 103.644913,104.332191 103.259476,104.727890 
	C103.018585,104.956123 103.010147,105.022430 102.977509,105.015213 
	C102.285820,105.487823 101.554703,105.811485 100.361397,106.038170 
	C99.133827,105.905083 98.432327,105.481056 97.436707,104.764420 
	C96.855331,103.994965 96.668358,103.480919 96.521179,102.523254 
	C96.862518,98.164505 99.874786,96.215630 103.022453,93.982414 
	C103.673157,93.897919 103.934525,93.902893 104.566948,94.014969 
	C106.801338,95.087250 106.569244,96.934593 106.896805,99.277924 
z"/>
<path fill="#317AC8" opacity="1.000000" stroke="none" 
	d="
M117.124115,95.031967 
	C119.271721,94.746597 119.849693,92.684296 121.459595,91.343613 
	C122.044434,90.737556 122.479965,90.482811 123.412949,90.498688 
	C124.259613,90.871719 124.551590,91.286049 124.652451,92.211922 
	C124.565735,92.856964 124.500198,93.110184 124.215820,93.689041 
	C123.996994,94.014694 123.821091,94.464325 123.737732,94.690887 
	C123.595520,95.121269 123.536667,95.325081 123.199768,95.683655 
	C122.095383,97.053314 121.269051,98.268211 120.176842,99.651237 
	C119.620964,100.283203 119.207077,100.567665 118.280106,100.723328 
	C116.757072,100.594872 115.965088,99.962067 115.347969,98.574646 
	C115.254189,97.661972 115.369118,97.154839 115.857674,96.385498 
	C116.124619,96.099052 116.040794,96.011894 116.078178,96.054199 
	C116.221123,95.782845 116.411789,95.534500 116.879295,95.210098 
	C117.071045,95.068710 117.098747,95.020782 117.124115,95.031967 
z"/>
<path fill="#1E5791" opacity="1.000000" stroke="none" 
	d="
M116.594086,70.604843 
	C121.437874,73.028549 122.773842,77.058502 120.907341,82.116066 
	C120.233948,83.940720 119.341171,85.684402 118.285461,87.685257 
	C117.533989,88.183693 117.059975,88.161049 116.337929,87.558678 
	C115.655952,86.534721 115.271263,85.560822 115.749512,84.936447 
	C119.198296,80.433922 118.522278,75.865623 116.594086,70.604843 
z"/>
<path fill="#6057B0" opacity="1.000000" stroke="none" 
	d="
M107.777985,104.316208 
	C108.250793,103.874626 108.463120,103.596893 108.904297,103.187042 
	C109.255493,102.869904 109.377838,102.684875 109.781235,102.321762 
	C110.062286,102.143684 110.060051,102.076439 110.093491,102.080154 
	C110.317360,101.917091 110.507790,101.750328 111.042564,101.422531 
	C112.697914,100.771614 113.879761,100.925987 115.102646,102.275108 
	C115.750374,103.736832 114.933327,104.478149 114.189240,105.614044 
	C113.952362,105.907227 113.967674,105.969780 113.935570,105.967239 
	C113.776337,106.136032 113.649200,106.307373 113.253036,106.652023 
	C112.984001,106.825333 112.872353,106.949150 112.793953,106.977493 
	C112.715553,107.005829 112.540436,107.461250 112.306427,107.530228 
	C112.072418,107.599197 111.945450,107.835327 111.854271,107.933586 
	C110.174179,109.110443 108.485809,109.207489 106.354790,108.294800 
	C105.989319,108.046799 105.972954,108.035706 105.966614,108.028122 
	C105.842506,107.842384 105.724739,107.664223 105.772980,107.212082 
	C105.938995,106.938095 106.105858,106.490692 106.185066,106.265457 
	C106.344078,105.858803 106.423882,105.677376 106.752136,105.332703 
	C107.000603,105.169441 107.067863,105.053680 107.129616,105.027832 
	C107.300079,104.828018 107.408798,104.654037 107.777985,104.316208 
z"/>
<path fill="#2B4288" opacity="1.000000" stroke="none" 
	d="
M116.609360,86.690292 
	C117.194756,87.069717 117.414139,87.325043 117.827972,87.742928 
	C116.649620,90.536896 114.961937,92.926735 112.036064,94.721008 
	C109.631218,92.248329 111.744720,90.771774 112.804962,88.683929 
	C113.867424,87.368179 114.774467,86.455009 116.609360,86.690292 
z"/>
<path fill="#1E5791" opacity="1.000000" stroke="none" 
	d="
M104.977867,68.729729 
	C109.108612,66.400497 112.864899,67.595978 116.780289,69.714790 
	C117.001495,69.994675 116.759209,70.259956 116.637863,70.392410 
	C113.017487,71.560616 109.594215,70.219315 105.775620,69.984802 
	C105.249634,69.562187 105.077026,69.348610 104.977867,68.729729 
z"/>
<path fill="#37539D" opacity="1.000000" stroke="none" 
	d="
M90.514534,71.620895 
	C92.399986,71.598976 93.677139,72.558365 95.958618,72.460022 
	C96.768921,73.262512 96.800087,73.799034 96.499565,74.716217 
	C92.156189,78.077507 90.991127,77.557594 90.514534,71.620895 
z"/>
<path fill="#37539D" opacity="1.000000" stroke="none" 
	d="
M85.940109,65.065025 
	C88.461472,66.007187 90.294678,67.598152 90.991516,70.621658 
	C91.029114,70.971878 90.812675,71.171898 90.704430,71.271889 
	C86.939972,71.520012 85.955223,68.963768 85.440887,65.757767 
	C85.614891,65.408073 85.831688,65.179359 85.940109,65.065025 
z"/>
<path fill="#3E377D" opacity="1.000000" stroke="none" 
	d="
M67.638428,79.370621 
	C67.279877,79.922112 67.209839,80.114555 67.022606,80.589310 
	C66.596519,79.799736 66.287628,78.727837 65.873352,77.322998 
	C65.315140,75.617661 65.545914,74.207848 65.663635,72.408569 
	C66.031776,71.155952 66.275452,70.305794 67.105530,69.474815 
	C68.978271,72.636688 68.689720,75.818268 67.638428,79.370621 
z"/>
<path fill="#3E377D" opacity="1.000000" stroke="none" 
	d="
M106.037949,108.414421 
	C107.641281,108.022148 109.293243,107.997498 111.354149,108.002350 
	C110.210938,110.854668 108.276268,110.783134 106.037949,108.414421 
z"/>
<path fill="#6E2E85" opacity="1.000000" stroke="none" 
	d="
M70.190216,91.296593 
	C70.938309,91.218727 71.652107,91.481850 72.610313,91.886253 
	C72.901398,93.095634 72.948074,94.163734 72.981567,95.632797 
	C72.030907,94.568367 71.093407,93.102966 70.190216,91.296593 
z"/>
<path fill="#572F7D" opacity="1.000000" stroke="none" 
	d="
M99.951736,105.174881 
	C100.983299,105.095131 101.637047,105.043648 102.617844,105.000092 
	C101.803619,106.229759 100.662361,107.451515 99.003548,108.513374 
	C97.893806,106.973618 98.199722,105.903923 99.951736,105.174881 
z"/>
<path fill="#3E377D" opacity="1.000000" stroke="none" 
	d="
M114.256531,105.815163 
	C114.213676,105.130188 114.474991,104.353157 114.847687,103.286049 
	C114.583305,101.722580 115.441353,101.409195 116.731102,101.194748 
	C117.284698,101.328224 117.492661,101.429718 117.903015,101.813202 
	C116.923843,103.304497 115.742271,104.513794 114.256531,105.815163 
z"/>
<path fill="#3E377D" opacity="1.000000" stroke="none" 
	d="
M104.693954,68.269829 
	C105.051308,68.324425 104.975700,68.649292 104.939713,68.812141 
	C104.526802,70.448654 103.506721,71.084724 101.673439,71.090355 
	C101.062294,70.894882 100.834541,70.770096 100.363892,70.340767 
	C101.019547,68.256325 102.592232,68.037056 104.693954,68.269829 
z"/>
<path fill="#37539D" opacity="1.000000" stroke="none" 
	d="
M99.778282,70.071678 
	C100.283508,70.086708 100.446014,70.137207 100.857376,70.244545 
	C100.991241,72.751427 99.507286,73.345573 97.024719,72.875320 
	C96.677841,72.694481 96.383858,72.394356 96.237213,72.243958 
	C96.809601,70.764656 98.001389,70.231819 99.778282,70.071678 
z"/>
<path fill="#37539D" opacity="1.000000" stroke="none" 
	d="
M65.496567,72.202744 
	C65.832581,73.394005 65.877068,74.781906 65.844757,76.579926 
	C64.291985,75.617805 65.040245,73.972816 65.496567,72.202744 
z"/>
<path fill="#2B4288" opacity="1.000000" stroke="none" 
	d="
M124.262878,93.220322 
	C124.041817,92.588821 124.092606,92.171799 124.197388,91.443756 
	C124.306007,90.639236 124.522781,90.232063 125.240417,89.789207 
	C125.579079,89.667152 125.818794,89.859161 125.938530,89.955322 
	C125.917213,90.916031 125.776154,91.780586 125.366959,92.839088 
	C124.910805,93.166954 124.722771,93.300873 124.262878,93.220322 
z"/>
<path fill="#572F7D" opacity="1.000000" stroke="none" 
	d="
M125.786041,117.178566 
	C125.875786,118.414528 124.983231,118.895882 123.547531,119.142410 
	C123.426262,117.888351 124.351868,117.431450 125.786041,117.178566 
z"/>
<path fill="#6E2E85" opacity="1.000000" stroke="none" 
	d="
M73.001289,96.342270 
	C74.086746,96.328362 74.799698,97.009865 75.002258,98.507339 
	C74.104721,98.339287 73.120872,97.910522 73.001289,96.342270 
z"/>
<path fill="#5F4196" opacity="1.000000" stroke="none" 
	d="
M108.380203,97.749527 
	C108.800133,98.809692 108.497871,99.549042 107.273819,99.886368 
	C106.978546,99.975098 106.797417,99.773079 106.707047,99.671906 
	C106.316620,98.501770 106.744606,97.841423 108.380203,97.749527 
z"/>
<path fill="#3E377D" opacity="1.000000" stroke="none" 
	d="
M117.807465,100.186539 
	C118.441185,99.908134 118.858391,99.840118 119.593277,99.795731 
	C119.483574,100.481079 119.056175,101.142799 118.367096,101.949852 
	C118.105415,102.095184 117.837471,101.833260 117.703613,101.702179 
	C117.450417,101.177437 117.450920,100.785927 117.807465,100.186539 
z"/>
<path fill="#3E377D" opacity="1.000000" stroke="none" 
	d="
M74.635529,61.061798 
	C74.202866,61.422932 73.446350,61.742676 72.375755,62.072830 
	C72.565613,61.208054 73.415840,61.065979 74.635529,61.061798 
z"/>
<path fill="#5F4196" opacity="1.000000" stroke="none" 
	d="
M67.898499,66.809441 
	C68.061157,66.758018 68.089752,66.924675 68.168152,67.340042 
	C68.348640,68.006638 68.292191,68.397491 67.739540,68.813156 
	C67.430473,68.864990 67.187706,68.882660 67.072083,68.919495 
	C67.225777,68.313385 67.495102,67.670456 67.898499,66.809441 
z"/>
<path fill="#3E377D" opacity="1.000000" stroke="none" 
	d="
M115.836746,96.168732 
	C116.118454,96.517059 116.112297,96.935066 116.063248,97.665146 
	C115.753525,98.300568 115.408485,98.480515 114.484375,98.254837 
	C114.498398,97.395248 115.023636,96.816833 115.836746,96.168732 
z"/>
<path fill="#6E2E85" opacity="1.000000" stroke="none" 
	d="
M69.283539,88.257843 
	C69.508820,88.469200 69.739029,88.968498 70.005478,89.745010 
	C69.790634,89.530090 69.539558,89.037933 69.283539,88.257843 
z"/>
<path fill="#3E377D" opacity="1.000000" stroke="none" 
	d="
M112.245499,107.595718 
	C112.059471,107.348969 112.165070,107.167885 112.552383,107.030884 
	C112.749786,107.268997 112.650795,107.464470 112.245499,107.595718 
z"/>
<path fill="#572F7D" opacity="1.000000" stroke="none" 
	d="
M126.883713,116.327164 
	C127.030045,116.586525 126.861839,116.808426 126.403152,117.032532 
	C126.209991,116.765709 126.362167,116.517365 126.883713,116.327164 
z"/>
<path fill="#3E377D" opacity="1.000000" stroke="none" 
	d="
M113.524414,98.985176 
	C113.058235,98.648483 113.235695,98.376892 113.746582,98.074394 
	C113.973160,97.973671 114.187408,98.240074 114.294037,98.373672 
	C114.287521,98.664993 114.174377,98.822723 113.524414,98.985176 
z"/>
<path fill="#3E377D" opacity="1.000000" stroke="none" 
	d="
M109.827766,102.197243 
	C109.988571,102.455315 109.819283,102.701126 109.343796,102.968033 
	C109.136223,102.700867 109.289589,102.432823 109.827766,102.197243 
z"/>
<path fill="#3E377D" opacity="1.000000" stroke="none" 
	d="
M111.655746,101.825821 
	C111.359108,102.080368 111.112717,102.093521 110.496620,102.095276 
	C110.117378,101.722656 110.256073,101.432251 110.994400,101.189072 
	C111.445793,101.165504 111.705994,101.584419 111.655746,101.825821 
z"/>
<path fill="#3E377D" opacity="1.000000" stroke="none" 
	d="
M111.140541,101.106613 
	C111.113342,100.675232 111.314568,100.425224 111.919044,100.406967 
	C112.192947,100.765442 112.138382,100.952347 111.842896,101.304352 
	C111.601982,101.469460 111.294174,101.227791 111.140541,101.106613 
z"/>
<path fill="#3E377D" opacity="1.000000" stroke="none" 
	d="
M112.155533,100.156067 
	C112.144249,99.723015 112.326698,99.461708 112.784592,99.120430 
	C112.987610,98.989899 113.225357,99.226196 113.344086,99.344498 
	C113.416023,99.812424 113.252197,100.093910 112.745491,100.413330 
	C112.519669,100.519394 112.276848,100.277245 112.155533,100.156067 
z"/>
<path fill="#5F4196" opacity="1.000000" stroke="none" 
	d="
M109.454041,97.057991 
	C109.916435,97.318962 109.743599,97.594559 109.221901,97.889603 
	C108.990662,97.982826 108.877586,97.840332 108.821732,97.768547 
	C108.822723,97.513306 108.879578,97.329849 109.454041,97.057991 
z"/>
<path fill="#5F4196" opacity="1.000000" stroke="none" 
	d="
M110.438942,96.080765 
	C110.886665,96.303352 110.704666,96.570709 110.197281,96.869858 
	C109.971664,96.969582 109.872932,96.872055 109.823944,96.822922 
	C109.819633,96.580345 109.864311,96.386909 110.438942,96.080765 
z"/>
<path fill="#37539D" opacity="1.000000" stroke="none" 
	d="
M123.982697,93.258118 
	C124.175453,93.006989 124.359863,93.008133 124.821548,93.021164 
	C124.908516,93.326019 124.718193,93.618996 124.262436,93.963333 
	C123.989441,93.846588 123.981895,93.678482 123.982697,93.258118 
z"/>
<path fill="#37539D" opacity="1.000000" stroke="none" 
	d="
M123.162178,95.804497 
	C122.959480,95.554306 123.086914,95.318680 123.479202,95.024490 
	C123.822891,95.276367 123.738976,95.560738 123.162178,95.804497 
z"/>
<path fill="#3E377D" opacity="1.000000" stroke="none" 
	d="
M116.822548,95.140839 
	C116.912956,95.357147 116.754868,95.645584 116.356171,96.015266 
	C116.268394,95.801994 116.421219,95.507484 116.822548,95.140839 
z"/>
<path fill="#5F4196" opacity="1.000000" stroke="none" 
	d="
M111.869690,95.023880 
	C111.932022,95.363571 111.737358,95.625122 111.205704,95.890091 
	C110.968887,95.968071 110.867615,95.867508 110.817207,95.817001 
	C110.816017,95.589302 110.865242,95.412117 111.158310,95.106010 
	C111.402168,94.977089 111.712883,95.020294 111.869690,95.023880 
z"/>
<path fill="#572F7D" opacity="1.000000" stroke="none" 
	d="
M96.190140,111.675476 
	C96.093269,111.444283 96.257339,111.266617 96.632141,111.054886 
	C96.838760,111.309975 96.708160,111.546036 96.190140,111.675476 
z"/>
<path fill="#572F7D" opacity="1.000000" stroke="none" 
	d="
M98.144455,109.749954 
	C97.912994,109.807701 97.740654,109.370163 97.676208,109.144035 
	C97.611763,108.917908 97.973923,108.578094 98.218475,108.535080 
	C98.463028,108.492065 98.707169,108.721748 98.829117,108.836655 
	C98.852760,109.271004 98.661041,109.517883 98.144455,109.749954 
z"/>
<path fill="#3E377D" opacity="1.000000" stroke="none" 
	d="
M105.715012,107.020370 
	C105.950089,107.118416 105.961182,107.298729 105.966278,107.749794 
	C105.483429,107.878387 104.971146,107.754341 105.715012,107.020370 
z"/>
<path fill="#3E377D" opacity="1.000000" stroke="none" 
	d="
M113.221420,106.796494 
	C113.067894,106.529694 113.238670,106.298134 113.699890,106.047668 
	C113.915863,106.321381 113.767654,106.589027 113.221420,106.796494 
z"/>
<path fill="#3E377D" opacity="1.000000" stroke="none" 
	d="
M106.779205,105.208931 
	C106.962830,105.447464 106.832764,105.672035 106.437340,105.941696 
	C106.165871,105.703400 106.263718,105.439461 106.779205,105.208931 
z"/>
<path fill="#3E377D" opacity="1.000000" stroke="none" 
	d="
M107.819275,104.201187 
	C107.983597,104.447868 107.832863,104.681465 107.388817,104.927567 
	C107.174080,104.667885 107.310326,104.417221 107.819275,104.201187 
z"/>
<path fill="#572F7D" opacity="1.000000" stroke="none" 
	d="
M103.254654,104.892227 
	C103.161720,104.690971 103.346893,104.459442 103.754059,104.129379 
	C103.942276,104.357506 103.794510,104.634537 103.254654,104.892227 
z"/>
<path fill="#010002" opacity="1.000000" stroke="none" 
	d="
M104.334633,94.827141 
	C102.157516,97.154564 100.222855,99.256454 98.133575,101.650864 
	C97.240723,102.827415 97.114090,104.016129 96.262863,105.214294 
	C95.860039,105.609001 95.674461,105.741493 95.166954,105.992935 
	C93.797966,106.568703 92.777588,107.207283 91.276688,106.412430 
	C90.980171,106.232780 90.883095,106.049095 90.788849,106.005402 
	C90.694595,105.961708 90.554253,105.552673 90.346062,105.494293 
	C89.911407,105.354973 89.684937,105.274040 89.106888,105.112396 
	C88.669807,104.854095 88.584312,104.676498 88.218399,104.405235 
	C87.937981,104.311569 87.861244,104.134499 87.773941,104.093399 
	C87.637810,103.881088 87.588982,103.709869 87.278854,103.483414 
	C85.829330,102.404640 84.641090,101.381119 83.158890,100.197388 
	C82.743690,99.858475 82.622444,99.679764 82.234619,99.317017 
	C81.968040,99.132980 81.969872,99.034767 81.920959,99.030281 
	C81.745102,98.846931 81.618164,98.668060 81.249756,98.265709 
	C80.944916,97.864532 80.881546,97.686829 80.719139,97.244019 
	C80.562874,96.801353 80.505630,96.623787 80.189674,96.339508 
	C79.930969,96.232796 79.894905,96.101067 79.827911,96.087845 
	C79.667496,95.875679 79.574066,95.676750 79.223831,95.271103 
	C78.967026,95.064400 78.997505,95.012695 78.967850,95.017319 
	C78.563293,94.565666 78.511307,93.990898 78.185127,93.231689 
	C78.008247,93.011543 78.010033,92.991516 78.000000,92.991531 
	C77.768150,92.769150 77.546646,92.546448 77.165344,92.150635 
	C77.005234,91.977829 76.995895,92.001534 77.007050,91.995895 
	C76.445854,91.603729 76.528404,90.949493 76.209930,90.139099 
	C76.053650,89.882904 75.936691,89.468643 75.852081,89.270752 
	C75.000473,88.001617 74.540253,86.813980 74.194771,85.262245 
	C72.913361,80.697136 71.080948,76.492516 71.968918,71.431824 
	C73.497025,68.583466 75.049820,66.340691 78.781174,66.720535 
	C79.386322,66.529335 79.605553,66.437325 80.180756,66.360382 
	C81.679756,66.756821 82.507668,67.657448 83.857086,68.374771 
	C84.362823,68.667770 84.561714,68.790375 84.995117,69.171646 
	C85.789993,70.441040 86.463150,71.361069 87.649185,72.300766 
	C88.075226,72.688217 88.222496,72.867760 88.520966,73.359085 
	C89.032402,74.516586 89.470734,75.319672 90.139381,76.387146 
	C90.852272,80.023209 92.448647,80.640808 94.918716,78.326256 
	C96.364311,76.971664 97.903961,75.724548 99.565498,74.055725 
	C100.212486,73.433823 100.660179,73.179077 101.535713,72.866165 
	C102.184761,72.668221 102.452103,72.608696 103.132126,72.552109 
	C106.298042,72.688240 109.035965,72.255020 111.808365,73.109390 
	C114.869507,74.052734 116.643860,75.681511 116.691406,79.380455 
	C116.833534,80.046410 116.898842,80.310295 117.019180,80.973595 
	C117.042152,81.635056 117.010094,81.897110 116.855835,82.526527 
	C116.604988,83.111038 116.476341,83.328186 116.119766,83.836487 
	C115.747887,84.321472 115.603935,84.515320 115.275085,85.011078 
	C114.983246,85.518036 114.876305,85.723068 114.553444,86.192749 
	C113.497711,87.111313 112.486763,87.590759 111.978088,88.993042 
	C111.817261,89.521721 111.751053,89.736122 111.523224,90.251160 
	C111.211761,90.723816 111.061920,90.895844 110.384964,91.497162 
	C107.899445,92.427017 106.679657,94.385628 104.334633,94.827141 
z"/>
<path fill="#7941A0" opacity="1.000000" stroke="none" 
	d="
M98.609039,108.213913 
	C98.463028,108.492065 98.050644,108.725456 97.831207,108.821686 
	C96.539032,108.877632 95.639015,108.540924 95.044907,107.197723 
	C94.608719,106.553391 94.508789,106.138885 94.862915,105.451172 
	C95.122101,105.229919 95.123695,105.127525 95.174591,105.121979 
	C95.681702,104.328003 96.504700,104.188385 97.579834,103.924805 
	C98.509712,104.172424 99.135696,104.452454 100.045624,104.939560 
	C99.804718,106.076332 99.279877,107.006042 98.609039,108.213913 
z"/>
<path fill="#572F7D" opacity="1.000000" stroke="none" 
	d="
M94.774506,105.325005 
	C95.098358,105.605362 95.074608,105.980812 94.992020,106.632141 
	C93.664215,107.476234 92.383965,108.365524 91.085571,106.504539 
	C92.129082,105.961884 93.278000,105.690987 94.774506,105.325005 
z"/>
<path fill="#572F7D" opacity="1.000000" stroke="none" 
	d="
M78.056381,93.290459 
	C78.313889,93.480698 78.619537,93.949852 78.931686,94.720474 
	C78.660309,94.537743 78.382416,94.053558 78.056381,93.290459 
z"/>
<path fill="#572F7D" opacity="1.000000" stroke="none" 
	d="
M76.038864,90.230347 
	C76.361099,90.377800 76.668541,90.872688 76.997086,91.678925 
	C76.851227,91.993446 76.684265,91.996635 76.267731,91.982346 
	C76.020126,91.502518 76.022102,91.040154 76.038864,90.230347 
z"/>
<path fill="#572F7D" opacity="1.000000" stroke="none" 
	d="
M82.072968,99.323807 
	C82.297226,99.164650 82.550613,99.319969 82.796555,99.818069 
	C82.587563,99.926567 82.358551,99.752388 82.072968,99.323807 
z"/>
<path fill="#572F7D" opacity="1.000000" stroke="none" 
	d="
M77.127594,92.184479 
	C77.280945,92.156265 77.556656,92.334694 77.911163,92.752335 
	C77.695869,92.849854 77.449196,92.649719 77.127594,92.184479 
z"/>
<path fill="#572F7D" opacity="1.000000" stroke="none" 
	d="
M81.108566,98.241516 
	C81.335770,98.108414 81.585014,98.284981 81.814041,98.798874 
	C81.601036,98.887398 81.379974,98.692398 81.108566,98.241516 
z"/>
<path fill="#572F7D" opacity="1.000000" stroke="none" 
	d="
M80.011269,96.386581 
	C80.240036,96.187943 80.471886,96.301086 80.623306,96.775574 
	C80.403481,96.881485 80.227295,96.735298 80.011269,96.386581 
z"/>
<path fill="#572F7D" opacity="1.000000" stroke="none" 
	d="
M79.051888,95.267120 
	C79.289787,95.140343 79.529648,95.324326 79.723763,95.845490 
	C79.497192,95.930481 79.289139,95.728889 79.051888,95.267120 
z"/>
<path fill="#572F7D" opacity="1.000000" stroke="none" 
	d="
M90.189301,105.561707 
	C90.378426,105.352409 90.556305,105.424095 90.683060,105.806335 
	C90.505486,105.932861 90.354195,105.841461 90.189301,105.561707 
z"/>
<path fill="#572F7D" opacity="1.000000" stroke="none" 
	d="
M88.039726,104.467834 
	C88.238609,104.282326 88.473389,104.392838 88.698814,104.837402 
	C88.512566,104.953224 88.307961,104.817360 88.039726,104.467834 
z"/>
<path fill="#572F7D" opacity="1.000000" stroke="none" 
	d="
M87.090744,103.569275 
	C87.294617,103.353867 87.502716,103.442047 87.664261,103.872498 
	C87.473068,103.998466 87.298828,103.884491 87.090744,103.569275 
z"/>
<path fill="#6057B0" opacity="1.000000" stroke="none" 
	d="
M67.376572,69.332497 
	C67.634781,68.545105 67.839081,68.225220 68.130669,67.747040 
	C70.396645,67.263596 70.747566,68.707634 70.884735,70.693245 
	C68.808815,73.560921 71.959442,77.793678 67.694443,79.721771 
	C67.340836,76.419785 67.331749,73.109894 67.376572,69.332497 
z"/>
<path fill="#572F7D" opacity="1.000000" stroke="none" 
	d="
M73.971909,85.368973 
	C75.020882,85.918388 75.443047,87.144157 75.776558,88.742622 
	C74.341103,88.396088 74.032562,87.119911 73.971909,85.368973 
z"/>
<path fill="#317AC8" opacity="1.000000" stroke="none" 
	d="
M80.275284,67.141113 
	C80.069641,66.901230 79.610725,66.782486 79.388916,66.701912 
	C78.343117,64.876198 76.072304,65.582024 74.764374,63.920975 
	C78.621521,61.557732 81.709404,64.030380 85.271805,65.273544 
	C87.117294,67.252213 88.619698,69.096352 90.359146,71.156181 
	C91.649750,73.253403 91.583107,77.043030 95.672638,74.040558 
	C96.405266,74.178070 96.737228,74.586563 96.983131,75.506866 
	C94.008209,80.893051 92.973419,81.112190 89.652237,77.111923 
	C88.594887,76.212120 88.152985,75.300301 87.331100,74.227402 
	C87.101410,73.943619 87.043930,73.964310 87.056137,73.936310 
	C86.086594,72.833969 85.644699,71.354324 84.251465,70.198540 
	C84.043732,69.964119 84.000000,69.999695 84.018684,69.978546 
	C82.966629,68.940208 81.892570,67.927597 80.275284,67.141113 
z"/>
<path fill="#148CD2" opacity="1.000000" stroke="none" 
	d="
M125.634895,89.289001 
	C125.261879,90.049103 124.944679,90.431053 124.439423,90.972870 
	C123.689400,91.130112 123.127426,91.127487 122.143410,91.154739 
	C122.313492,88.990242 122.888512,86.791046 123.505028,84.603554 
	C123.809883,83.521866 124.093262,82.038040 125.531746,82.357582 
	C127.294586,82.749168 126.780060,84.353966 126.540268,85.601608 
	C126.325714,86.717880 125.979073,87.808769 125.634895,89.289001 
z"/>
<path fill="#4869BC" opacity="1.000000" stroke="none" 
	d="
M111.551292,94.652870 
	C111.251419,95.143486 111.106148,95.314529 110.866577,95.628357 
	C110.507431,95.949402 110.273735,96.160713 109.920341,96.587105 
	C109.527802,96.952919 109.296349,97.150459 108.923233,97.531570 
	C108.167694,98.171333 107.569511,98.645905 106.794006,99.345604 
	C103.125717,99.693405 105.013435,97.413132 105.055756,95.660339 
	C105.821907,93.424591 108.029778,92.600731 108.883957,90.384674 
	C109.156769,90.190895 109.143776,90.128471 109.174530,90.120071 
	C109.304871,89.906387 109.404449,89.701096 109.799667,89.323364 
	C110.095314,89.150932 110.086967,89.088020 110.116959,89.098396 
	C110.833694,88.300865 111.498924,87.461823 113.064575,87.436874 
	C113.940033,87.777657 114.262634,88.175552 114.277176,89.075172 
	C113.321663,91.072624 112.511040,92.700638 111.551292,94.652870 
z"/>
<path fill="#3E377D" opacity="1.000000" stroke="none" 
	d="
M108.849770,90.297867 
	C108.879181,92.420715 107.548904,93.897858 105.405182,95.177452 
	C104.930351,95.301689 104.760429,95.259872 104.341347,95.135361 
	C105.106895,93.054474 106.872131,91.774948 108.849770,90.297867 
z"/>
<path fill="#572F7D" opacity="1.000000" stroke="none" 
	d="
M97.912094,103.568741 
	C97.197548,104.283417 96.511383,104.674461 95.525352,105.090958 
	C95.479752,103.787529 96.560707,103.095436 97.707916,102.094498 
	C97.966125,102.377289 97.953300,102.811195 97.912094,103.568741 
z"/>
<path fill="#4869BC" opacity="1.000000" stroke="none" 
	d="
M112.368866,100.680298 
	C112.737595,100.291824 112.949455,100.058739 113.309036,99.641479 
	C113.670197,99.249138 113.878029,99.035896 114.243484,98.665176 
	C114.756310,98.376938 115.111938,98.246605 115.743973,98.046745 
	C116.583061,98.484375 117.145760,98.991539 117.866226,99.737427 
	C117.936836,100.335480 117.849693,100.694817 117.666153,101.312630 
	C116.852295,101.916046 116.134827,102.260986 115.188217,102.800949 
	C114.020180,102.733063 113.081299,102.470139 111.873955,102.137222 
	C111.605492,102.067215 111.569931,101.766991 111.585953,101.618225 
	C111.807709,101.260391 112.013077,101.050972 112.368866,100.680298 
z"/>
<path fill="#148CD2" opacity="1.000000" stroke="none" 
	d="
M114.371803,89.225861 
	C113.862259,89.114090 113.592224,88.783562 113.082535,88.242424 
	C112.194649,87.252991 112.294861,86.399643 112.963348,85.282906 
	C113.333252,85.039261 113.493546,84.770683 113.557449,84.627945 
	C113.317596,84.086685 113.340408,83.707832 114.021790,83.395706 
	C114.353760,83.442764 114.410812,83.347458 114.427818,83.294586 
	C114.315269,82.884911 114.387550,82.575249 114.870926,82.151718 
	C115.080109,81.990707 115.216881,81.571472 115.285767,81.362030 
	C116.175995,78.679375 116.432526,75.927071 114.065659,74.507568 
	C110.776283,72.534798 107.060760,71.895126 103.220192,74.488358 
	C102.680641,74.531464 102.484901,74.590668 101.986877,74.701996 
	C101.586624,74.969803 101.488647,75.185486 101.040588,75.462090 
	C99.295929,75.699768 98.122124,76.788574 96.339172,76.287262 
	C96.041367,75.580528 96.021492,75.095528 95.967865,74.246490 
	C96.049133,73.589188 96.202492,73.317581 96.536026,72.881058 
	C97.996193,72.034744 99.314552,71.375000 100.869568,70.508316 
	C102.153282,69.898621 103.200348,69.495857 104.575562,69.034042 
	C108.557693,69.164017 112.309753,68.528397 116.147888,70.396667 
	C121.430557,75.546249 120.655037,80.781242 117.038704,86.467453 
	C116.187347,87.545296 115.399330,88.276199 114.371803,89.225861 
z"/>
<path fill="#37539D" opacity="1.000000" stroke="none" 
	d="
M107.210518,86.640648 
	C106.446571,89.504776 104.594070,91.373169 102.274429,90.353981 
	C99.614815,89.185410 100.747353,86.436729 101.689568,84.306190 
	C102.146263,83.273514 102.848640,82.349480 103.743790,81.221283 
	C105.764145,81.526329 106.690117,82.791763 107.411537,84.658875 
	C107.488701,85.460709 107.480164,85.920441 107.210518,86.640648 
z"/>
<path fill="#186FA2" opacity="1.000000" stroke="none" 
	d="
M107.174408,85.294357 
	C104.824455,84.933647 104.099060,83.697479 104.084030,81.423302 
	C104.047791,81.066307 104.005997,81.031067 104.032898,81.027100 
	C104.280617,80.775703 104.492355,80.520721 104.863800,80.075653 
	C105.157997,79.387024 105.283424,78.880936 105.637299,78.242706 
	C106.121834,77.816132 106.416550,77.567513 107.040115,77.386581 
	C107.612602,77.385170 107.894379,77.390099 108.384644,77.456650 
	C109.026276,77.313576 109.384117,77.411240 109.613991,78.097107 
	C110.607803,80.180634 110.216637,81.781982 108.837646,83.550400 
	C108.628494,84.035622 108.572830,84.256256 108.221725,84.647812 
	C107.926285,84.818733 107.917366,84.896179 107.878448,84.894043 
	C107.690948,85.161469 107.542374,85.431046 107.174408,85.294357 
z"/>
<path fill="#1E5791" opacity="1.000000" stroke="none" 
	d="
M103.279999,74.497749 
	C106.074272,70.787285 110.094681,71.603409 113.611046,73.269394 
	C116.419266,74.599869 117.755173,77.427170 115.611183,80.931519 
	C114.777748,73.828186 112.510269,72.540222 103.279999,74.497749 
z"/>
<path fill="#37539D" opacity="1.000000" stroke="none" 
	d="
M95.884857,76.336716 
	C97.463470,75.589157 98.865707,75.112785 100.642227,74.627266 
	C101.150932,74.765877 101.285347,74.913651 101.242859,75.303284 
	C99.222076,76.836319 97.302307,77.947060 95.663040,79.603607 
	C92.619194,82.679550 91.096306,82.168724 88.945679,77.513985 
	C88.755608,76.940048 88.616325,76.710800 88.761139,76.196609 
	C91.165558,77.108070 93.044518,80.614334 95.884857,76.336716 
z"/>
<path fill="#2B4288" opacity="1.000000" stroke="none" 
	d="
M80.225182,67.190567 
	C81.911018,66.790283 83.115128,67.698723 83.964645,69.624054 
	C82.305542,69.888641 81.346588,68.679169 80.225182,67.190567 
z"/>
<path fill="#2B4288" opacity="1.000000" stroke="none" 
	d="
M84.033264,70.304153 
	C85.816948,70.338715 86.721001,71.518005 87.063782,73.564743 
	C85.804581,73.052216 84.274895,72.444229 84.033264,70.304153 
z"/>
<path fill="#3E377D" opacity="1.000000" stroke="none" 
	d="
M113.003090,85.155937 
	C113.229645,85.791435 113.126038,86.543610 112.932663,87.663788 
	C112.137085,88.357292 111.431290,88.682777 110.436218,89.058517 
	C110.125053,87.261215 111.527405,86.351471 113.003090,85.155937 
z"/>
<path fill="#2B4288" opacity="1.000000" stroke="none" 
	d="
M88.958786,75.627502 
	C89.017509,76.120995 88.989784,76.330299 88.928467,76.854454 
	C88.035759,76.493019 87.315117,75.722099 87.115326,74.264664 
	C87.957687,74.073677 88.524231,74.570320 88.958786,75.627502 
z"/>
<path fill="#2B4288" opacity="1.000000" stroke="none" 
	d="
M106.952545,85.224594 
	C106.955032,84.888092 107.397438,84.838615 107.618484,84.865257 
	C107.711540,85.448929 107.583557,86.005959 107.219902,86.732376 
	C106.972832,86.454872 106.961441,86.007988 106.952545,85.224594 
z"/>
<path fill="#3E377D" opacity="1.000000" stroke="none" 
	d="
M109.533112,78.148514 
	C109.257950,78.317841 109.009285,78.145981 108.704231,77.692833 
	C108.897545,77.621971 109.201477,77.753899 109.533112,78.148514 
z"/>
<path fill="#3E377D" opacity="1.000000" stroke="none" 
	d="
M107.040352,77.400864 
	C107.028023,77.618286 106.725716,77.828087 106.144577,78.074226 
	C106.160629,77.871452 106.455498,77.632339 107.040352,77.400864 
z"/>
<path fill="#1E5791" opacity="1.000000" stroke="none" 
	d="
M101.249283,75.492249 
	C101.065948,75.545128 101.013344,75.085846 101.014931,74.851974 
	C101.016518,74.618111 101.370995,74.583038 101.527794,74.668579 
	C101.754150,75.039223 101.670158,75.267639 101.249283,75.492249 
z"/>
<path fill="#3E377D" opacity="1.000000" stroke="none" 
	d="
M109.853333,89.204979 
	C110.036049,89.467560 109.878029,89.723129 109.413269,90.014664 
	C109.158691,89.740799 109.294044,89.456581 109.853333,89.204979 
z"/>
<path fill="#3E377D" opacity="1.000000" stroke="none" 
	d="
M114.112701,83.505516 
	C114.394287,83.775238 114.286583,84.049667 113.826004,84.375641 
	C113.704788,84.179565 113.788216,83.873917 114.112701,83.505516 
z"/>
<path fill="#37539D" opacity="1.000000" stroke="none" 
	d="
M104.801262,80.017128 
	C104.842384,80.168983 104.652191,80.444855 104.260895,80.871933 
	C104.229843,80.729134 104.399895,80.435143 104.801262,80.017128 
z"/>
<path fill="#3E377D" opacity="1.000000" stroke="none" 
	d="
M114.861839,82.131409 
	C115.009949,82.314255 114.939796,82.637802 114.657227,83.101532 
	C114.511070,82.918503 114.577324,82.595299 114.861839,82.131409 
z"/>
<path fill="#2B4288" opacity="1.000000" stroke="none" 
	d="
M108.151306,84.744827 
	C107.974686,84.522781 108.110603,84.274734 108.509102,83.944794 
	C108.761559,84.165138 108.658951,84.450447 108.151306,84.744827 
z"/>
</svg>